# Blender v2.79 (sub 0) OBJ File: ''
# www.blender.org
mtllib floor.mtl
o Cube
v 2.500000 -0.200000 -5.000000
v 2.500000 -0.200000 5.000000
v -2.500000 -0.200000 5.000000
v -2.500000 -0.200000 -5.000000
v 2.500000 0.200000 -5.000000
v 2.500000 0.200000 5.000000
v -2.500000 0.200000 5.000000
v -2.500000 0.200000 -5.000000
vt 0.019280 0.999947
vt 0.019281 0.519229
vt 0.259640 0.519229
vt 0.259639 0.999947
vt 0.019282 0.019282
vt 0.259641 0.019282
vt 0.259640 0.500000
vt 0.019281 0.500000
vt 0.000053 0.019281
vt 0.000053 0.500000
vt 0.278869 0.500000
vt 0.278869 0.019282
vt 0.019282 0.000053
vt 0.259641 0.000053
vn 0.0000 -1.0000 0.0000
vn 0.0000 1.0000 0.0000
vn 1.0000 0.0000 0.0000
vn -0.0000 -0.0000 1.0000
vn -1.0000 -0.0000 -0.0000
vn 0.0000 0.0000 -1.0000
usemtl Material.004
s off
f 1/1/1 2/2/1 3/3/1 4/4/1
f 5/5/2 8/6/2 7/7/2 6/8/2
f 1/9/3 5/5/3 6/8/3 2/10/3
f 2/2/4 6/8/4 7/7/4 3/3/4
f 3/11/5 7/7/5 8/6/5 4/12/5
f 5/5/6 1/13/6 4/14/6 8/6/6
